<?xml version="1.0" encoding="utf-8"?>
<!-- Generator: Adobe Illustrator 15.1.0, SVG Export Plug-In . SVG Version: 6.00 Build 0)  -->
<!DOCTYPE svg PUBLIC "-//W3C//DTD SVG 1.1//EN" "http://www.w3.org/Graphics/SVG/1.1/DTD/svg11.dtd">
<svg version="1.1" xmlns="http://www.w3.org/2000/svg" xmlns:xlink="http://www.w3.org/1999/xlink" x="0px" y="0px" width="50px"
	 height="300px" viewBox="0 0 50 300" enable-background="new 0 0 50 300" xml:space="preserve">
<g id="Capa_2" display="none">
	<rect display="inline" fill-rule="evenodd" clip-rule="evenodd" width="50" height="300"/>
</g>
<g id="Capa_1">
	<g>
		<circle fill="#FFFFFF" cx="25" cy="24.667" r="20"/>
		<path d="M17.639,18.615c1.578,0,2.562-1.046,2.562-2.354c-0.029-1.335-0.983-2.353-2.531-2.353s-2.561,1.017-2.561,2.353
			c0,1.307,0.982,2.354,2.502,2.354H17.639z"/>
		<path d="M36.225,34.092v-7.809c0-4.183-2.233-6.129-5.21-6.129c-2.403,0-3.48,1.322-4.08,2.249v-1.929h-4.527
			c0.061,1.278,0,13.618,0,13.618h4.527v-7.605c0-0.406,0.029-0.813,0.149-1.104c0.327-0.813,1.071-1.655,2.321-1.655
			c1.639,0,2.293,1.249,2.293,3.079v7.286L36.225,34.092L36.225,34.092z"/>
		<rect x="15.376" y="20.474" width="4.526" height="13.618"/>
	</g>
	<path id="flickr-circle-icon" fill="#FFFFFF" d="M25.917,77.5c-11.046,0-20,8.954-20,20s8.954,20,20,20s20-8.954,20-20
		S36.963,77.5,25.917,77.5z M31.859,104.158c-2.596,0-4.844-1.485-5.942-3.652c-1.098,2.167-3.347,3.652-5.942,3.652
		c-3.677,0-6.658-2.981-6.658-6.658c0-3.677,2.981-6.658,6.658-6.658c2.596,0,4.844,1.485,5.942,3.652
		c1.099-2.167,3.347-3.652,5.942-3.652c3.677,0,6.657,2.98,6.657,6.658C38.517,101.177,35.536,104.158,31.859,104.158z M36.741,97.5
		c0,2.692-2.19,4.883-4.882,4.883c-2.692,0-4.883-2.19-4.883-4.883c0-2.692,2.19-4.882,4.883-4.882
		C34.551,92.618,36.741,94.808,36.741,97.5z"/>
	<path fill-rule="evenodd" clip-rule="evenodd" fill="#FFFFFF" d="M25.71,150.924c-11.043,0-19.999,9.182-19.999,20.508
		c0,9.059,5.73,16.745,13.678,19.457c1,0.188,1.365-0.445,1.365-0.988c0-0.487-0.018-1.776-0.027-3.488
		c-5.563,1.239-6.737-2.748-6.737-2.748c-0.91-2.369-2.221-3-2.221-3c-1.816-1.272,0.137-1.247,0.137-1.247
		c2.007,0.146,3.063,2.113,3.063,2.113c1.784,3.134,4.681,2.229,5.821,1.704c0.182-1.325,0.698-2.229,1.27-2.741
		c-4.441-0.518-9.11-2.276-9.11-10.135c0-2.239,0.779-4.069,2.059-5.503c-0.206-0.519-0.892-2.604,0.196-5.426
		c0,0,1.679-0.553,5.5,2.102c1.595-0.455,3.306-0.684,5.007-0.69c1.699,0.007,3.41,0.235,5.008,0.69
		c3.817-2.654,5.493-2.102,5.493-2.102c1.092,2.822,0.405,4.907,0.199,5.426c1.282,1.434,2.055,3.264,2.055,5.503
		c0,7.878-4.676,9.611-9.131,10.119c0.719,0.633,1.358,1.884,1.358,3.797c0,2.741-0.025,4.953-0.025,5.626
		c0,0.548,0.361,1.186,1.376,0.985c7.94-2.717,13.665-10.397,13.665-19.454C45.711,160.105,36.756,150.924,25.71,150.924z"/>
	<path id="email-9-icon" fill="#FFFFFF" d="M25.5,230.5c-11.046,0-20,8.954-20,20s8.954,20,20,20s20-8.954,20-20
		S36.546,230.5,25.5,230.5z M37.534,241.611l-11.937,9.155l-11.918-9.155H37.534z M13.597,244.119l7.022,5.394l-7.022,7.022V244.119
		L13.597,244.119z M13.626,259.389l8.623-8.623l3.347,2.57l3.342-2.563l8.615,8.615H13.626L13.626,259.389z M37.597,256.549
		l-7.026-7.027l7.026-5.389V256.549z"/>
</g>
</svg>
